<svg xmlns="http://www.w3.org/2000/svg" xmlns:xlink="http://www.w3.org/1999/xlink" id="Layer_1" x="0" y="0" version="1.1" viewBox="0 0 723 723" style="enable-background:new 0 0 723 723" xml:space="preserve"><style type="text/css">.st0{fill:#fff;stroke:#000;stroke-miterlimit:10}</style><circle cx="361.5" cy="361.5" r="361.5" class="st0"/><g><path d="M375.3,768.2c-4.2,0-8.2-1.1-11.8-3.2c-7.5-4.2-12.2-12.2-12.1-20.8V612.4c0,0,0,0,0,0c0-13.1,10.8-24,24-24 c4.3,0,8.6,1.2,12.3,3.4l110.5,65.9c7.2,4.3,11.7,12.1,11.7,20.6c0,8.4-4.4,16.3-11.7,20.6l-110.5,65.9 C383.9,767,379.7,768.2,375.3,768.2z" transform="matrix(1,0,0,1,-67.94,-316.92)"/></g><g><path d="M189.6,592h-57.3v172.5h57.3v-57.9H248v57.9h57.3V592H248v56.7h-58.4V592z M543.4,592h173v172.5h-57.3V648.8h-58.4v115.7 h-57.3V592z" transform="matrix(1,0,0,1,-67.94,-316.92)"/></g></svg>