<svg xmlns="http://www.w3.org/2000/svg" xmlns:krita="http://krita.org/namespaces/svg/krita" xmlns:xlink="http://www.w3.org/1999/xlink" width="72.96" height="72.96" viewBox="0 0 54.72 54.72"><rect id="shape0" width="54.72" height="54.72" fill="#fe8b00" fill-rule="evenodd" stroke="#000" stroke-linecap="square" stroke-linejoin="bevel" stroke-opacity="0" stroke-width="0" rx="6.262" ry="6.262" transform="matrix(0.999999955383659 0 0 0.999999955383659 0 0)"/><rect id="shape01" width="43.92" height="8.946" fill="#834337" fill-rule="evenodd" stroke="#000" stroke-linecap="square" stroke-linejoin="bevel" stroke-opacity="0" stroke-width="0" transform="matrix(0.999999955383659 0 0 0.999999955383659 5.90911661881115 38.471619116448)"/><path id="shape1" fill="#fedabb" fill-rule="evenodd" stroke="#000" stroke-linecap="square" stroke-linejoin="bevel" stroke-opacity="0" stroke-width="0" d="M0 32.3031C2.31805 10.239 4.23 -0.52219 5.73585 0.0194681C6.86678 10.5608 7.14115 21.446 7.48537 32.3031L12.6311 18.1405C15.436 12.3218 19.9236 9.31709 23.9957 8.11596C16.383 18.7092 18.6924 24.7208 17.4516 32.6496C20.5021 26.4351 23.6692 18.3233 28.1301 14.4673C32.3347 9.85143 33.5598 22.4344 36.0016 24.5686C28.8482 26.326 30.9287 14.0578 27.7029 27.201C27.0193 31.132 28.7656 30.6687 32.2595 31.9607L32.0744 32.395C32.23 32.5239 21.5386 32.4933 0 32.3031Z" transform="matrix(0.999999955383659 0 0 0.999999955383659 10.7763068644836 5.87358632450816)"/></svg>