<svg xmlns="http://www.w3.org/2000/svg" xmlns:xlink="http://www.w3.org/1999/xlink" id="Layer_1" x="0" y="0" version="1.1" viewBox="0 0 500 500" style="enable-background:new 0 0 500 500" xml:space="preserve"><style type="text/css">.st0{fill:url(#SVGID_1_)}.st1{opacity:.75}.st2{fill:#fff}</style><linearGradient id="SVGID_1_" x1="-13.785" x2="560.52" y1="-13.007" y2="559.604" gradientUnits="userSpaceOnUse"><stop offset="0" style="stop-color:#0f61ff"/><stop offset=".16" style="stop-color:#1360fc"/><stop offset=".328" style="stop-color:#205cf4"/><stop offset=".499" style="stop-color:#3555e6"/><stop offset=".673" style="stop-color:#524bd2"/><stop offset=".847" style="stop-color:#783fb9"/><stop offset="1" style="stop-color:#9f329f"/></linearGradient><rect width="500" height="500" class="st0"/><g class="st1"><path d="M211.1,207.7v104h-23.9v-104h-37.6v-19.4h99.5v19.4H211.1z" class="st2"/><path d="M288,311.7h-23.8V188.3h42.2c6.7,0,12.8,1,18.2,2.9c5.4,2,10.1,4.6,13.9,8.1c3.8,3.5,6.7,7.7,8.8,12.5 c2.1,4.9,3.1,10.3,3.1,16.2c0,5.5-1,10.7-3.1,15.3c-2.1,4.7-5,8.7-8.8,12.1c-3.8,3.4-8.5,6.1-13.9,8.1c-5.4,1.9-11.5,2.9-18.2,2.9 H288V311.7z M306.4,247.1c3.4,0,6.3-0.5,8.8-1.5c2.5-1,4.6-2.4,6.3-4.2c1.6-1.8,2.9-3.8,3.7-6.1c0.8-2.3,1.2-4.7,1.2-7.2 c0-2.9-0.4-5.6-1.2-8.1c-0.8-2.5-2-4.7-3.7-6.5c-1.7-1.9-3.8-3.3-6.3-4.4c-2.5-1.1-5.4-1.6-8.8-1.6H288v39.5H306.4z" class="st2"/></g></svg>